<svg width="58" height="58" viewBox="0 0 58 58" fill="none" xmlns="http://www.w3.org/2000/svg">
<g filter="url(#filter0_d_164_2)">
<path d="M4 8C4 3.58172 7.58172 0 12 0H46C50.4183 0 54 3.58172 54 8V42C54 46.4183 50.4183 50 46 50H12C7.58172 50 4 46.4183 4 42V8Z" fill="#F6F7F8"/>
<g clip-path="url(#clip0_164_2)">
<path d="M34.2 33.5V41L28.9 38.9L23.4 41V33.4C24.8 35.3 26.5 34.9 28.2 34.1C28.5 34 28.8 34 29.1 34.1C31 34.9 32.8 35.4 34.2 33.5Z" fill="#00C9C9"/>
<path d="M28.8 16.2999C25.8 16.2999 23.5 18.6999 23.5 21.5999C23.5 24.5999 25.9 26.8999 28.8 26.8999C31.7 26.8999 34.1 24.4999 34.1 21.5999C34.1 18.6999 31.8 16.2999 28.8 16.2999Z" fill="#00C9C9"/>
<path d="M40.2 22.1L39.7 21.3C39.4 20.8 39.3 20.2 39.4 19.6L39.7 18.4C40 17.4 39.5 16.3 38.5 15.9L37.6 15.5C37 15.2 36.7 14.7 36.5 14.2L36.1 13C35.8 12 34.8 11.4 33.7 11.5L32.7 11.6C32.1 11.7 31.5 11.5 31 11.2L30.1 10.4C29.3 9.79995 28.1 9.79995 27.3 10.4L26.6 11.2C26.2 11.5 25.7 11.7 25 11.7L23.9 11.5C22.9 11.4 21.9 12.1 21.5 13L21.2 14C21 14.6 20.7 15.1 20.1 15.3L19.1 15.8C18.1 16.3 17.7 17.3 18 18.4L18.2 19.4C18.4 20 18.2 20.5 18 21.1L17.4 22.1C16.9 23 17 24.1 17.8 24.8L18.5 25.5C19 25.9 19.2 26.4 19.3 27V28.2C19.4 29.2 20.1 30.0999 21.2 30.2999L22.2 30.5C22.8 30.6 23.3 30.7999 23.7 31.4L24.4 32.2999C25 33.1999 26.1 33.5 27.1 33.1L28 32.7C28.6 32.4 29.1 32.4 29.7 32.7L30.7 33.1C31.7 33.5 32.8 33.1999 33.4 32.2999L34 31.5C34.3 31 34.8 30.7 35.5 30.6L36.6 30.4C37.6 30.1999 38.4 29.2999 38.4 28.2999L38.5 27.2999C38.5 26.6999 38.7 26.1 39.2 25.7L40 24.9C40.6 24.1 40.8 23 40.2 22.1ZM28.9 28.6C25 28.6 22 25.5 22 21.7C22 17.9 25 14.8 28.9 14.8C32.7 14.8 35.8 17.9 35.8 21.7C35.7 25.5 32.7 28.6 28.9 28.6Z" fill="#00C9C9"/>
</g>
</g>
<defs>
<filter id="filter0_d_164_2" x="0" y="0" width="58" height="58" filterUnits="userSpaceOnUse" color-interpolation-filters="sRGB">
<feFlood flood-opacity="0" result="BackgroundImageFix"/>
<feColorMatrix in="SourceAlpha" type="matrix" values="0 0 0 0 0 0 0 0 0 0 0 0 0 0 0 0 0 0 127 0" result="hardAlpha"/>
<feOffset dy="4"/>
<feGaussianBlur stdDeviation="2"/>
<feComposite in2="hardAlpha" operator="out"/>
<feColorMatrix type="matrix" values="0 0 0 0 0 0 0 0 0 0 0 0 0 0 0 0 0 0 0.25 0"/>
<feBlend mode="normal" in2="BackgroundImageFix" result="effect1_dropShadow_164_2"/>
<feBlend mode="normal" in="SourceGraphic" in2="effect1_dropShadow_164_2" result="shape"/>
</filter>
<clipPath id="clip0_164_2">
<rect width="24" height="31" fill="white" transform="translate(17 10)"/>
</clipPath>
</defs>
</svg>
