<svg width="420" height="19" viewBox="0 0 420 19" fill="none" xmlns="http://www.w3.org/2000/svg">
<path d="M22 13C22 10.2386 24.2386 8 27 8H72C74.7614 8 77 10.2386 77 13C77 15.7614 74.7614 18 72 18H27C24.2386 18 22 15.7614 22 13Z" fill="#00CCCC"/>
<path d="M103 13C103 10.2386 105.239 8 108 8C110.761 8 113 10.2386 113 13C113 15.7614 110.761 18 108 18C105.239 18 103 15.7614 103 13Z" fill="#E3E6E8"/>
<path d="M85 13C85 10.2386 87.2386 8 90 8C92.7614 8 95 10.2386 95 13C95 15.7614 92.7614 18 90 18C87.2386 18 85 15.7614 85 13Z" fill="#E3E6E8"/>
<path d="M4 13C4 10.2386 6.23858 8 9 8C11.7614 8 14 10.2386 14 13C14 15.7614 11.7614 18 9 18C6.23858 18 4 15.7614 4 13Z" fill="#E3E6E8"/>
</svg>
